<?xml version="1.0" encoding="UTF-8"?>
<!DOCTYPE svg PUBLIC "-//W3C//DTD SVG 1.1//EN" "http://www.w3.org/Graphics/SVG/1.1/DTD/svg11.dtd">
<!-- Creator: CorelDRAW 2020 (64-Bit) -->
<svg xmlns="http://www.w3.org/2000/svg" xml:space="preserve" width="8.5in" height="11in" version="1.1" style="shape-rendering:geometricPrecision; text-rendering:geometricPrecision; image-rendering:optimizeQuality; fill-rule:evenodd; clip-rule:evenodd"
viewBox="0 0 8500 11000"
 xmlns:xlink="http://www.w3.org/1999/xlink"
 xmlns:xodm="http://www.corel.com/coreldraw/odm/2003">
 <defs>
  <style type="text/css">
   <![CDATA[
    .fil2 {fill:#34A853;fill-rule:nonzero}
    .fil1 {fill:#4285F4;fill-rule:nonzero}
    .fil3 {fill:#EA4335;fill-rule:nonzero}
    .fil0 {fill:#FBBC05;fill-rule:nonzero}
   ]]>
  </style>
    <clipPath id="id0">
     <rect x="3292.15" y="4871.96" width="971.02" height="1253.48"/>
    </clipPath>
 </defs>
 <g id="Layer_x0020_1">
  <metadata id="CorelCorpID_0Corel-Layer"/>
  <g id="_2399386304096">
   <path class="fil0" d="M4547.6 5690.02c0,133.02 -104.06,231.04 -231.77,231.04 -127.71,0 -231.77,-98.02 -231.77,-231.04 0,-133.85 104.06,-231.04 231.77,-231.04 127.71,0 231.77,97.08 231.77,231.04zm-101.46 0c0,-83.13 -60.31,-140 -130.31,-140 -70,0 -130.31,56.87 -130.31,140 0,82.29 60.31,140 130.31,140 70,0 130.31,-57.81 130.31,-140z"/>
   <path class="fil1" d="M5026.77 5472.94l0 414.79c0,170.63 -100.63,240.31 -219.58,240.31 -111.98,0 -179.37,-74.9 -204.79,-136.15l88.33 -36.77c15.73,37.6 54.27,81.98 116.35,81.98 76.15,0 123.33,-46.98 123.33,-135.42l0 -33.23 -3.54 0c-22.71,28.02 -66.46,52.5 -121.67,52.5 -115.52,0 -221.35,-100.63 -221.35,-230.1 0,-130.42 105.83,-231.87 221.35,-231.87 55.1,0 98.85,24.48 121.67,51.67l3.54 0 0 -37.6 96.35 -0 0 -0.1zm-89.17 217.92c0,-81.35 -54.27,-140.83 -123.33,-140.83 -70,0 -128.65,59.48 -128.65,140.83 0,80.52 58.65,139.17 128.65,139.17 69.06,0 123.33,-58.65 123.33,-139.17z"/>
   <polygon class="fil2" points="5185.62,5229.81 5185.62,5906.9 5086.67,5906.9 5086.67,5229.81 "/>
   <path class="fil3" d="M5571.25 5766.07l78.75 52.5c-25.42,37.6 -86.67,102.4 -192.5,102.4 -131.25,0 -229.27,-101.46 -229.27,-231.04 0,-137.4 98.85,-231.04 217.92,-231.04 119.9,0 178.54,95.42 197.71,146.98l10.52 26.25 -308.85 127.92c23.65,46.35 60.42,70 111.98,70 51.67,0 87.5,-25.42 113.75,-63.96l-0 -0zm-242.4 -83.13l206.46 -85.73c-11.35,-28.85 -45.52,-48.96 -85.73,-48.96 -51.56,0 -123.33,45.52 -120.73,134.69l0 -0z"/>
   <g style="clip-path:url(#id0)">
    <image x="3292.15" y="4871.96" width="971.01" height="1253.47" xlink:href="batman_Images\batman_ImgID1.png"/>
   </g>
   <path class="fil1" d="M3209.48 5629.92l0 -98.02 330.31 0c3.23,17.08 4.9,37.29 4.9,59.17 0,73.54 -20.1,164.48 -84.9,229.27 -63.02,65.63 -143.54,100.63 -250.21,100.63 -197.7,0 -363.96,-161.04 -363.96,-358.75 0,-197.71 166.25,-358.75 363.96,-358.75 109.37,0 187.29,42.92 245.83,98.85l-69.17 69.17c-41.98,-39.37 -98.85,-70 -176.77,-70 -144.37,0 -257.29,116.35 -257.29,260.73 0,144.37 112.92,260.73 257.29,260.73 93.65,0 146.98,-37.6 181.15,-71.77 27.71,-27.71 45.94,-67.29 53.13,-121.35l-234.27 0.1 -0 0.01z"/>
  </g>
 </g>
</svg>
