<?xml version="1.0" encoding="UTF-8"?>
<!DOCTYPE svg PUBLIC "-//W3C//DTD SVG 1.1//EN" "http://www.w3.org/Graphics/SVG/1.1/DTD/svg11.dtd">
<!-- Creator: CorelDRAW 2020 (64-Bit) -->
<svg xmlns="http://www.w3.org/2000/svg" xml:space="preserve" width="1.1332in" height="1.1053in" version="1.1" style="shape-rendering:geometricPrecision; text-rendering:geometricPrecision; image-rendering:optimizeQuality; fill-rule:evenodd; clip-rule:evenodd"
viewBox="0 0 160.87 156.91"
 xmlns:xlink="http://www.w3.org/1999/xlink"
 xmlns:xodm="http://www.corel.com/coreldraw/odm/2003">
 <defs>
  <style type="text/css">
   <![CDATA[
    .fil1 {fill:#FEFEFE}
    .fil0 {fill:black}
   ]]>
  </style>
 </defs>
 <g id="Layer_x0020_1">
  <metadata id="CorelCorpID_0Corel-Layer"/>
  <path class="fil0" d="M56.52 13.17c0.14,8.93 1.11,26.55 -1.86,33.61 -1.65,3.92 -4.6,7.52 -6.73,10.76l-42.08 62.99c-2.31,3.36 -4.96,6.68 -5.64,11.79 -1.51,11.28 5,19.12 12.17,22.46 6.72,3.13 24.23,1.89 33.03,1.89l35.01 0 35.01 0c8.8,0 26.31,1.24 33.03,-1.89 7.17,-3.34 13.68,-11.18 12.17,-22.46 -0.68,-5.11 -3.33,-8.43 -5.64,-11.79l-42.08 -62.99c-2.13,-3.24 -5.08,-6.84 -6.73,-10.76 -2.96,-7.06 -2,-24.68 -1.86,-33.61 4.6,0 9.16,0.24 10.51,-4.15 1.48,-4.81 -1.6,-8.46 -5.57,-8.8 -0.86,-0.07 -14.81,-0.19 -28.85,-0.22 -14.04,0.03 -27.99,0.15 -28.85,0.22 -3.98,0.34 -7.06,3.99 -5.57,8.8 1.35,4.39 5.91,4.15 10.51,4.15z"/>
  <path class="fil1" d="M91.1 13.15l-21.33 0c-2.08,9.49 2.74,24.88 -3.7,39.84 -1.98,4.59 -5.8,9.76 -8.3,13.47l-17.6 26.41c-2.4,3.6 -7.61,9.37 -6.31,15.37 1.16,5.34 5.79,9.64 12,9.91 17.93,0.79 37.56,-21.03 58.71,-29.01 13.47,-5.08 15.58,2.66 -5.38,-28.69 -5.59,-8.37 -7.87,-13.41 -7.86,-25.27 0.01,-4.87 0.61,-18.12 -0.23,-22.02z"/>
 </g>
</svg>
