<?xml version="1.0" encoding="UTF-8"?>
<!DOCTYPE svg PUBLIC "-//W3C//DTD SVG 1.1//EN" "http://www.w3.org/Graphics/SVG/1.1/DTD/svg11.dtd">
<!-- Creator: CorelDRAW 2020 (64-Bit) -->
<svg xmlns="http://www.w3.org/2000/svg" xml:space="preserve" width="1.1332in" height="1.1053in" version="1.1" style="shape-rendering:geometricPrecision; text-rendering:geometricPrecision; image-rendering:optimizeQuality; fill-rule:evenodd; clip-rule:evenodd"
viewBox="0 0 263.03 256.55"
 xmlns:xlink="http://www.w3.org/1999/xlink"
 xmlns:xodm="http://www.corel.com/coreldraw/odm/2003">
 <defs>
  <style type="text/css">
   <![CDATA[
    .fil0 {fill:black}
    .fil1 {fill:url(#id0)}
   ]]>
  </style>
  <linearGradient id="id0" gradientUnits="userSpaceOnUse" x1="85.45" y1="33.09" x2="157.33" y2="181.63">
   <stop offset="0" style="stop-opacity:1; stop-color:#C8EAFB"/>
   <stop offset="1" style="stop-opacity:1; stop-color:#3B568C"/>
  </linearGradient>
 </defs>
 <g id="Layer_x0020_1">
  <metadata id="CorelCorpID_0Corel-Layer"/>
  <path class="fil0" d="M92.42 21.53c0.23,14.6 1.81,43.41 -3.03,54.95 -2.69,6.41 -7.52,12.3 -11,17.59l-68.8 102.99c-3.78,5.49 -8.11,10.92 -9.22,19.28 -2.46,18.45 8.18,31.26 19.9,36.72 10.99,5.12 39.61,3.09 54,3.09l57.25 0 57.25 0c14.39,0 43.02,2.04 54,-3.09 11.73,-5.46 22.37,-18.27 19.9,-36.72 -1.12,-8.36 -5.45,-13.79 -9.22,-19.28l-68.8 -102.99c-3.49,-5.29 -8.31,-11.18 -11,-17.59 -4.85,-11.54 -3.27,-40.35 -3.03,-54.95 7.52,0 14.97,0.4 17.18,-6.78 2.43,-7.87 -2.61,-13.83 -9.11,-14.38 -1.41,-0.12 -24.21,-0.31 -47.17,-0.36 -22.96,0.05 -45.77,0.24 -47.17,0.36 -6.5,0.55 -11.54,6.52 -9.11,14.38 2.21,7.18 9.66,6.79 17.18,6.78z"/>
  <path class="fil1" d="M148.95 21.5l-34.88 0c-3.4,15.51 4.48,40.69 -6.04,65.13 -3.23,7.5 -9.48,15.95 -13.58,22.03l-28.77 43.18c-3.93,5.88 -12.44,15.32 -10.31,25.13 1.9,8.73 9.46,15.76 19.63,16.21 29.32,1.3 61.41,-34.39 95.99,-47.44 22.02,-8.31 25.47,4.35 -8.79,-46.91 -9.15,-13.68 -12.87,-21.92 -12.85,-41.32 0.01,-7.96 0.99,-29.63 -0.38,-36.01z"/>
 </g>
</svg>
