<?xml version="1.0" encoding="UTF-8"?>
<!DOCTYPE svg PUBLIC "-//W3C//DTD SVG 1.1//EN" "http://www.w3.org/Graphics/SVG/1.1/DTD/svg11.dtd">
<!-- Creator: CorelDRAW 2020 (64-Bit) -->
<svg xmlns="http://www.w3.org/2000/svg" xml:space="preserve" width="2.80875in" height="1.26997in" version="1.1" style="shape-rendering:geometricPrecision; text-rendering:geometricPrecision; image-rendering:optimizeQuality; fill-rule:evenodd; clip-rule:evenodd"
viewBox="0 0 2808.76 1269.97"
 xmlns:xlink="http://www.w3.org/1999/xlink"
 xmlns:xodm="http://www.corel.com/coreldraw/odm/2003">
 <defs>
  <style type="text/css">
   <![CDATA[
    .fil2 {fill:#34A853;fill-rule:nonzero}
    .fil1 {fill:#4285F4;fill-rule:nonzero}
    .fil3 {fill:#EA4335;fill-rule:nonzero}
    .fil0 {fill:#FBBC05;fill-rule:nonzero}
   ]]>
  </style>
    <clipPath id="id0">
     <path d="M268.8 0l1369.47 0 0 1269.97 -235.13 0 10.15 -5.18 -83.33 -221.35 -4.34 141.49 -31.25 -179.69 8.68 165.8 -68.58 -165.8 60.77 228.3 -104.17 -190.98 46.87 109.38 -72.92 -85.94 40.8 131.95 -103.3 -179.69 65.97 246.53 -112.85 -211.81 65.11 173.61 -115.45 -197.92 32.98 79 -67.71 -95.49c0,0 -52.95,234.38 -51.65,246.97 1.3,12.59 14.33,-218.32 14.33,-218.32 0,0 -30.38,191.84 -30.38,202.26 0,10.42 -24.31,-194.45 -24.31,-194.45l8.68 214.83 -22.13 -174.91 -12.15 173.61 -23.87 -124.13 2.17 82.9 -18.23 -79.86 2.61 123.7 -25.17 -128.47c0,0 5.43,80.5 11.65,133.66l-1.63 0c-7.22,-24.43 -15.22,-49.45 -15.22,-49.45l-115.45 -177.09 -46.09 226.54 -354.9 0 0 -1269.97z"/>
    </clipPath>
 </defs>
 <g id="Layer_x0020_1">
  <metadata id="CorelCorpID_0Corel-Layer"/>
  <g id="_2399380150736">
   <path class="fil0" d="M1701.98 831.95c0,133.02 -104.06,231.04 -231.77,231.04 -127.71,0 -231.77,-98.02 -231.77,-231.04 0,-133.85 104.06,-231.04 231.77,-231.04 127.71,0 231.77,97.08 231.77,231.04zm-101.46 0c0,-83.13 -60.31,-140 -130.31,-140 -70,0 -130.31,56.87 -130.31,140 0,82.29 60.31,140 130.31,140 70,0 130.31,-57.81 130.31,-140z"/>
   <path class="fil1" d="M2181.15 614.87l0 414.79c0,170.63 -100.63,240.31 -219.58,240.31 -111.98,0 -179.37,-74.9 -204.79,-136.15l88.33 -36.77c15.73,37.6 54.27,81.98 116.35,81.98 76.15,0 123.33,-46.98 123.33,-135.42l0 -33.23 -3.54 0c-22.71,28.02 -66.46,52.5 -121.67,52.5 -115.52,0 -221.35,-100.63 -221.35,-230.1 0,-130.42 105.83,-231.87 221.35,-231.87 55.1,0 98.85,24.48 121.67,51.67l3.54 0 0 -37.6 96.35 -0 0 -0.1zm-89.17 217.92c0,-81.35 -54.27,-140.83 -123.33,-140.83 -70,0 -128.65,59.48 -128.65,140.83 0,80.52 58.65,139.17 128.65,139.17 69.06,0 123.33,-58.65 123.33,-139.17z"/>
   <polygon class="fil2" points="2340,371.74 2340,1048.83 2241.05,1048.83 2241.05,371.74 "/>
   <path class="fil3" d="M2725.63 908l78.75 52.5c-25.42,37.6 -86.67,102.4 -192.5,102.4 -131.25,0 -229.27,-101.46 -229.27,-231.04 0,-137.4 98.85,-231.04 217.92,-231.04 119.9,0 178.54,95.42 197.71,146.98l10.52 26.25 -308.85 127.92c23.65,46.35 60.42,70 111.98,70 51.67,0 87.5,-25.42 113.75,-63.96l-0 -0zm-242.4 -83.13l206.46 -85.73c-11.35,-28.85 -45.52,-48.96 -85.73,-48.96 -51.56,0 -123.33,45.52 -120.73,134.69l0 -0z"/>
   <g style="clip-path:url(#id0)">
    <image x="268.8" y="0" width="1369.47" height="1711.84" xlink:href="xman_Images\xman_ImgID1.png"/>
   </g>
   <path class="fil1" d="M363.85 771.85l0 -98.02 330.31 0c3.23,17.08 4.9,37.29 4.9,59.17 0,73.54 -20.1,164.48 -84.9,229.27 -63.02,65.63 -143.54,100.63 -250.21,100.63 -197.71,0 -363.96,-161.04 -363.96,-358.75 0,-197.71 166.25,-358.75 363.96,-358.75 109.37,0 187.29,42.92 245.83,98.85l-69.17 69.17c-41.98,-39.37 -98.85,-70 -176.77,-70 -144.37,0 -257.29,116.35 -257.29,260.73 0,144.37 112.92,260.73 257.29,260.73 93.65,0 146.98,-37.6 181.15,-71.77 27.71,-27.71 45.94,-67.29 53.13,-121.35l-234.27 0.1 -0 0.01z"/>
  </g>
 </g>
</svg>
